<mxfile host="app.diagrams.net" modified="2023-07-24T13:37:26.089Z" agent="Mozilla/5.0 (Windows NT 10.0; Win64; x64) AppleWebKit/537.36 (KHTML, like Gecko) Chrome/115.0.0.0 Safari/537.36" etag="FOVjTNnjQRU-kY2k9rSt" version="21.5.2" type="github">
  <diagram name="PÃ¡gina-1" id="AzWnXiR79D9hN7R9NY9f">
    <mxGraphModel dx="1834" dy="1150" grid="0" gridSize="10" guides="1" tooltips="1" connect="1" arrows="1" fold="1" page="0" pageScale="1" pageWidth="827" pageHeight="1169" math="0" shadow="0">
      <root>
        <mxCell id="0" />
        <mxCell id="1" parent="0" />
        <mxCell id="-e_fqk73qJRjWBUYOGPc-1" value="https://accounts.google.com/o/oauth2/v2/auth" style="rounded=0;whiteSpace=wrap;html=1;fillColor=#dae8fc;strokeColor=#6c8ebf;fontColor=#000000;" vertex="1" parent="1">
          <mxGeometry x="117" y="85" width="273" height="60" as="geometry" />
        </mxCell>
        <mxCell id="-e_fqk73qJRjWBUYOGPc-2" value="" style="endArrow=classic;html=1;rounded=0;entryX=0;entryY=0.25;entryDx=0;entryDy=0;" edge="1" parent="1" target="-e_fqk73qJRjWBUYOGPc-1">
          <mxGeometry width="50" height="50" relative="1" as="geometry">
            <mxPoint x="-55" y="100" as="sourcePoint" />
            <mxPoint x="22" y="102" as="targetPoint" />
          </mxGeometry>
        </mxCell>
        <mxCell id="-e_fqk73qJRjWBUYOGPc-3" value="client_id&lt;br&gt;redirect_uri&lt;br&gt;scope&lt;br&gt;response_type" style="text;html=1;strokeColor=none;fillColor=none;align=left;verticalAlign=middle;whiteSpace=wrap;rounded=0;" vertex="1" parent="1">
          <mxGeometry x="25" y="52" width="60" height="30" as="geometry" />
        </mxCell>
        <mxCell id="-e_fqk73qJRjWBUYOGPc-4" value="" style="endArrow=classic;html=1;rounded=0;exitX=0;exitY=0.75;exitDx=0;exitDy=0;" edge="1" parent="1" source="-e_fqk73qJRjWBUYOGPc-1">
          <mxGeometry width="50" height="50" relative="1" as="geometry">
            <mxPoint x="267" y="311" as="sourcePoint" />
            <mxPoint x="-58" y="130" as="targetPoint" />
          </mxGeometry>
        </mxCell>
        <mxCell id="-e_fqk73qJRjWBUYOGPc-5" value="authorization_code" style="text;html=1;strokeColor=none;fillColor=none;align=center;verticalAlign=middle;whiteSpace=wrap;rounded=0;" vertex="1" parent="1">
          <mxGeometry x="-21" y="131" width="60" height="30" as="geometry" />
        </mxCell>
        <mxCell id="-e_fqk73qJRjWBUYOGPc-6" value="&lt;h1&gt;External Provider&lt;br&gt;Google&lt;/h1&gt;" style="text;html=1;strokeColor=none;fillColor=none;spacing=5;spacingTop=-20;whiteSpace=wrap;overflow=hidden;rounded=0;" vertex="1" parent="1">
          <mxGeometry x="-70" y="-139" width="250" height="68" as="geometry" />
        </mxCell>
      </root>
    </mxGraphModel>
  </diagram>
</mxfile>
